<svg width="2500" height="1424" viewBox="0 0 2500 1424" fill="none" xmlns="http://www.w3.org/2000/svg">
<g clip-path="url(#clip0_256_17)">
<path d="M812.621 1272.47H710.357V867.206H812.621V1272.47Z" fill="#C4122E"/>
<mask id="mask0_256_17" style="mask-type:luminance" maskUnits="userSpaceOnUse" x="0" y="-1" width="2500" height="1425">
<path d="M0.254883 1423.99H2499.75V-0.00850092H0.254883V1423.99Z" fill="white"/>
</mask>
<g mask="url(#mask0_256_17)">
<path d="M1637.2 983.326C1632.99 981.188 1600.08 961.689 1551.17 961.689C1485.06 961.689 1439.19 1007.69 1439.19 1069.78C1439.19 1130 1483.08 1177.97 1551.17 1177.97C1599.24 1177.97 1632.7 1158.86 1637.2 1156.46V1265.24C1624.38 1268.8 1589.42 1279.65 1544.01 1279.65C1428.98 1279.65 1328.02 1200.36 1328.02 1069.75C1328.02 948.765 1419.36 860.008 1544.01 860.008C1591.95 860.008 1627.52 871.671 1637.2 874.554V983.326ZM569.777 983.326C565.663 981.188 532.785 961.689 483.873 961.689C417.63 961.689 371.795 1007.69 371.795 1069.78C371.795 1130 415.719 1177.97 483.873 1177.97C531.943 1177.97 565.372 1158.86 569.777 1156.46V1265.24C557.079 1268.8 522.161 1279.65 476.487 1279.65C361.559 1279.65 260.722 1200.36 260.722 1069.75C260.722 948.765 352.068 860.008 476.52 860.008C524.655 860.008 560.157 871.671 569.777 874.554V983.326ZM1958.89 963.212C1898.22 963.212 1853.16 1010.96 1853.16 1069.78C1853.16 1128.74 1898.22 1176.45 1958.89 1176.45C2019.5 1176.45 2064.68 1128.74 2064.68 1069.78C2064.68 1010.96 2019.5 963.212 1958.89 963.212ZM2173.04 1069.78C2173.04 1185.71 2083.54 1279.65 1958.92 1279.65C1834.25 1279.65 1744.88 1185.71 1744.88 1069.75C1744.88 954.045 1834.28 860.008 1958.89 860.008C2083.54 860.008 2173.04 954.044 2173.04 1069.78ZM1200.42 959.325C1198.9 958.839 1155.85 946.95 1120.48 946.95C1079.5 946.95 1057.22 960.685 1057.22 980.153C1057.22 1004.84 1087.28 1013.45 1104.09 1018.76L1132.3 1027.74C1198.71 1048.86 1228.93 1094.3 1228.93 1143.67C1228.93 1245.48 1139.4 1279.68 1061.14 1279.68C1006.75 1279.68 955.797 1269.64 950.776 1268.61V1175.32C959.781 1177.58 1002.67 1190.41 1047.34 1190.41C1098.23 1190.41 1121.61 1175.51 1121.61 1152.58C1121.61 1132.04 1101.37 1120.18 1076 1112.22C1069.85 1110.14 1060.52 1107.23 1054.17 1105.15C997.227 1087.14 949.74 1053.65 949.74 986.598C949.74 910.8 1006.49 859.911 1100.75 859.911C1150.54 859.911 1197.38 871.994 1200.42 872.804V959.291V959.325Z" fill="#C4122E"/>
<path d="M152.272 431.684C152.272 403.762 129.468 381.119 101.513 381.119C73.5583 381.119 50.7217 403.761 50.7217 431.651V538.061C51.0562 551.305 56.5526 563.895 66.0383 573.144C75.524 582.393 88.2483 587.569 101.497 587.569C114.745 587.569 127.469 582.393 136.955 573.144C146.441 563.895 151.937 551.305 152.272 538.061V431.684ZM431.138 292.073C431.138 278.607 425.788 265.692 416.266 256.17C406.744 246.647 393.829 241.298 380.363 241.298C366.896 241.298 353.982 246.647 344.459 256.17C334.937 265.692 329.588 278.607 329.588 292.073V538.061C329.588 551.527 334.937 564.442 344.459 573.964C353.982 583.487 366.896 588.836 380.363 588.836C393.829 588.836 406.744 583.487 416.266 573.964C425.788 564.442 431.138 551.527 431.138 538.061V292.04V292.073ZM710.036 101.023C710.036 73.1006 687.232 50.4256 659.277 50.4256C631.29 50.4256 608.486 73.1006 608.486 101.023V639.156C608.82 652.401 614.317 664.99 623.802 674.24C633.288 683.489 646.012 688.666 659.261 688.666C672.509 688.666 685.234 683.489 694.719 674.24C704.205 664.99 709.701 652.401 710.036 639.156V101.023ZM988.902 292.073C988.902 278.607 983.552 265.692 974.03 256.17C964.508 246.647 951.593 241.298 938.127 241.298C924.66 241.298 911.745 246.647 902.223 256.17C892.701 265.692 887.352 278.607 887.352 292.073V538.061C887.352 551.527 892.701 564.442 902.223 573.964C911.745 583.487 924.66 588.836 938.127 588.836C951.593 588.836 964.508 583.487 974.03 573.964C983.552 564.442 988.902 551.527 988.902 538.061V292.04V292.073ZM1267.48 431.684C1267.48 418.288 1262.17 405.436 1252.71 395.955C1243.25 386.473 1230.41 381.136 1217.01 381.119C1203.58 381.11 1190.7 386.425 1181.19 395.897C1171.67 405.369 1166.3 418.225 1166.25 431.651V538.061C1166.25 551.484 1171.58 564.358 1181.07 573.85C1190.57 583.341 1203.44 588.674 1216.86 588.674C1230.29 588.674 1243.16 583.341 1252.65 573.85C1262.14 564.358 1267.48 551.484 1267.48 538.061V431.684ZM1546.47 292.073C1546.14 278.872 1540.66 266.322 1531.2 257.103C1521.75 247.884 1509.06 242.724 1495.86 242.724C1482.65 242.724 1469.97 247.884 1460.51 257.103C1451.06 266.322 1445.58 278.872 1445.25 292.073V538.061C1445.25 551.484 1450.58 564.358 1460.07 573.85C1469.56 583.341 1482.44 588.674 1495.86 588.674C1509.28 588.674 1522.16 583.341 1531.65 573.85C1541.14 564.358 1546.47 551.484 1546.47 538.061V292.04V292.073ZM1825.53 101.023C1825.53 87.5994 1820.2 74.7256 1810.71 65.2339C1801.22 55.7421 1788.34 50.4098 1774.92 50.4098C1761.5 50.4098 1748.62 55.7421 1739.13 65.2339C1729.64 74.7256 1724.31 87.5994 1724.31 101.023V639.156C1724.01 645.99 1725.09 652.812 1727.5 659.214C1729.91 665.615 1733.59 671.463 1738.32 676.404C1743.05 681.346 1748.73 685.278 1755.02 687.964C1761.31 690.651 1768.08 692.037 1774.92 692.037C1781.76 692.037 1788.53 690.651 1794.82 687.964C1801.11 685.278 1806.79 681.346 1811.52 676.404C1816.25 671.463 1819.93 665.615 1822.34 659.214C1824.74 652.812 1825.83 645.99 1825.53 639.156V101.023ZM2104.53 292.073C2104.53 264.119 2081.88 241.411 2053.28 241.411C2039.86 241.419 2026.99 246.757 2017.5 256.251C2008.01 265.745 2002.69 278.618 2002.69 292.04V538.061C2002.69 566.145 2025.36 588.786 2053.28 588.786C2081.88 588.786 2104.53 566.145 2104.53 538.061V292.04V292.073ZM2383 431.684C2383 418.248 2377.67 405.361 2368.17 395.86C2358.66 386.359 2345.78 381.022 2332.34 381.022C2318.91 381.022 2306.02 386.359 2296.52 395.86C2287.02 405.361 2281.68 418.248 2281.68 431.684V538.061C2281.68 566.145 2304.39 588.818 2332.34 588.818C2360.26 588.818 2382.97 566.145 2382.97 538.061V431.684H2383Z" fill="#15495D"/>
<path d="M2324.47 1219.08V1225.43H2306.4V1272.43H2298.95V1225.46H2280.81V1219.08H2324.47ZM2328.26 1219.08H2339.89L2355.86 1262.84H2356.12L2371.57 1219.11H2382.97V1272.43H2375.36V1228.7H2375.1L2358.9 1272.43H2351.88L2336.07 1228.7H2335.71V1272.43H2328.26V1219.08Z" fill="#C4122E"/>
</g>
</g>
<defs>
<clipPath id="clip0_256_17">
<rect width="2500" height="1424" fill="white"/>
</clipPath>
</defs>
</svg>
