<svg width="24" height="24" viewBox="0 0 24 24" fill="none" xmlns="http://www.w3.org/2000/svg">
<path d="M3.34495 21.601L1.41895 0H22.5809L20.6529 21.597L11.9869 24L3.34495 21.601Z" fill="#E44D26"/>
<path d="M12 22.1636L19.003 20.2226L20.65 1.76562H12V22.1636Z" fill="#F16529"/>
<path d="M11.9999 9.77802H8.49393L8.25193 7.06502H11.9999V4.41602H5.35693L5.41993 5.12602L6.07093 12.427H11.9999V9.77802ZM11.9999 16.658L11.9879 16.661L9.03793 15.864L8.84893 13.751H6.18993L6.56093 17.911L11.9879 19.417L11.9999 19.414V16.658Z" fill="#EBEBEB"/>
<path d="M11.9912 9.77804V12.427H15.2532L14.9452 15.863L11.9902 16.66V19.416L17.4212 17.911L17.4612 17.463L18.0842 10.488L18.1492 9.77704H17.4352L11.9912 9.77804ZM11.9912 4.41604V7.06504H18.3902L18.4432 6.46904L18.5642 5.12604L18.6272 4.41504L11.9912 4.41604Z" fill="white"/>
</svg>
