<svg width="48" height="48" viewBox="0 0 48 48" fill="none" xmlns="http://www.w3.org/2000/svg">
<g clip-path="url(#clip0_253_35)">
<path d="M0 24C0 10.745 10.745 0 24 0C37.255 0 48 10.745 48 24C48 37.255 37.255 48 24 48C10.745 48 0 37.255 0 24Z" fill="#31C5F0"/>
<path d="M2.3999 24.0004C2.3999 12.0704 12.0699 2.40039 23.9999 2.40039C35.9299 2.40039 45.5999 12.0704 45.5999 24.0004C45.5999 35.9304 35.9299 45.6004 23.9999 45.6004C12.0699 45.6004 2.3999 35.9304 2.3999 24.0004Z" fill="url(#paint0_radial_253_35)"/>
<path fill-rule="evenodd" clip-rule="evenodd" d="M12 13.9136C12 13.7876 12.269 13.6936 12.426 13.6936C13.649 13.6306 15.445 13.5996 17.326 13.5996C22.596 13.5996 24.648 16.4846 24.648 20.1856C24.648 25.0156 21.145 27.0856 16.848 27.0856C16.455 27.0856 16.201 27.0756 15.971 27.0676C15.7721 27.0593 15.5731 27.055 15.374 27.0546V34.3576C15.374 34.5146 15.311 34.5776 15.154 34.5776H12.22C12.063 34.5776 12 34.5136 12 34.3576V13.9136ZM15.374 24.0126C15.813 24.0426 16.158 24.0426 16.911 24.0426C19.137 24.0426 21.229 23.2596 21.229 20.2486C21.229 17.8336 19.733 16.6106 17.193 16.6106C16.44 16.6106 15.719 16.6406 15.373 16.6736V24.0116L15.374 24.0126ZM29.727 23.1336C29.727 22.5066 30.229 21.7536 31.734 21.7536C32.958 21.7536 34.204 22.0676 35.05 22.5696C35.238 22.6326 35.332 22.5376 35.332 22.3816V19.7776C35.332 19.6526 35.301 19.4956 35.144 19.4016C34.517 19.1196 33.365 18.8686 31.734 18.8686C28.41 18.8686 26.497 20.9066 26.497 23.3536C26.497 25.5486 27.626 26.8656 30.323 28.1516C32.236 29.1556 32.675 29.7516 32.675 30.4416C32.675 31.2886 32.048 31.9156 30.543 31.9156C29.288 31.9156 27.905 31.5706 26.713 30.7856C26.588 30.6926 26.493 30.7556 26.493 30.9436V33.7346C26.493 33.8916 26.525 33.9856 26.65 34.0486C27.466 34.5186 28.88 34.8636 30.543 34.8636C33.679 34.8636 36 33.2336 36 30.1906C36 28.1526 35.06 26.7726 32.08 25.3296C30.072 24.2946 29.727 23.8236 29.727 23.1336Z" fill="#31C5F0"/>
</g>
<defs>
<radialGradient id="paint0_radial_253_35" cx="0" cy="0" r="1" gradientUnits="userSpaceOnUse" gradientTransform="translate(19.6229 16.7904) scale(28.1648)">
<stop stop-color="#0E0E17" stop-opacity="0.85"/>
<stop offset="0.767" stop-color="#0E0E17"/>
</radialGradient>
<clipPath id="clip0_253_35">
<rect width="48" height="48" fill="white"/>
</clipPath>
</defs>
</svg>
